<svg xmlns="http://www.w3.org/2000/svg" xmlns:xlink="http://www.w3.org/1999/xlink" viewBox="0 0 356 14.45"><defs><style>.cls-1{fill:none;stroke:#000;stroke-miterlimit:10;}.cls-2{fill:url(#linear-gradient);}</style><linearGradient id="linear-gradient" x1="1141" y1="-587.86" x2="1141" y2="-580.92" gradientTransform="translate(-963 586)" gradientUnits="userSpaceOnUse"><stop offset="0" stop-color="#fff"/><stop offset="1"/></linearGradient></defs><g id="Layer_2" data-name="Layer 2"><g id="Portrait"><g id="page-01"><g id="Layer_26" data-name="Layer 26"><line class="cls-1" x1="25.68" y1="4" x2="25.68" y2="14"/><line class="cls-1" x1="31.76" y1="4" x2="31.76" y2="9"/><line class="cls-1" x1="37.84" y1="4" x2="37.84" y2="9"/><line class="cls-1" x1="43.92" y1="4" x2="43.92" y2="9"/><line class="cls-1" x1="50" y1="4" x2="50" y2="9"/><line class="cls-1" x1="56.08" y1="4" x2="56.08" y2="14"/><line class="cls-1" x1="62.16" y1="4" x2="62.16" y2="9"/><line class="cls-1" x1="68.24" y1="4" x2="68.24" y2="9"/><line class="cls-1" x1="74.32" y1="4" x2="74.32" y2="9"/><line class="cls-1" x1="80.4" y1="4" x2="80.4" y2="9"/><line class="cls-1" x1="92.56" y1="4" x2="92.56" y2="9"/><line class="cls-1" x1="98.64" y1="4" x2="98.64" y2="9"/><line class="cls-1" x1="104.72" y1="4" x2="104.72" y2="9"/><line class="cls-1" x1="110.8" y1="4" x2="110.8" y2="9"/><line class="cls-1" x1="116.88" y1="4" x2="116.88" y2="14"/><line class="cls-1" x1="122.96" y1="4" x2="122.96" y2="9"/><line class="cls-1" x1="129.04" y1="4" x2="129.04" y2="9"/><line class="cls-1" x1="135.12" y1="4" x2="135.12" y2="9"/><line class="cls-1" x1="141.2" y1="4" x2="141.2" y2="9"/><line class="cls-1" x1="153.36" y1="4" x2="153.36" y2="9"/><line class="cls-1" x1="159.44" y1="4" x2="159.44" y2="9"/><line class="cls-1" x1="165.52" y1="4" x2="165.52" y2="9"/><line class="cls-1" x1="171.6" y1="4" x2="171.6" y2="9"/><line class="cls-1" x1="177.68" y1="4" x2="177.68" y2="14"/><line class="cls-1" x1="183.76" y1="4" x2="183.76" y2="9"/><line class="cls-1" x1="189.84" y1="4" x2="189.84" y2="9"/><line class="cls-1" x1="195.92" y1="4" x2="195.92" y2="9"/><line class="cls-1" x1="202" y1="4" x2="202" y2="9"/><line class="cls-1" x1="214.16" y1="4" x2="214.16" y2="9"/><line class="cls-1" x1="220.24" y1="4" x2="220.24" y2="9"/><line class="cls-1" x1="226.32" y1="4" x2="226.32" y2="9"/><line class="cls-1" x1="232.4" y1="4" x2="232.4" y2="9"/><line class="cls-1" x1="238.48" y1="4" x2="238.48" y2="14"/><line class="cls-1" x1="244.56" y1="4" x2="244.56" y2="9"/><line class="cls-1" x1="250.64" y1="4" x2="250.64" y2="9"/><line class="cls-1" x1="256.72" y1="4" x2="256.72" y2="9"/><line class="cls-1" x1="262.8" y1="4" x2="262.8" y2="9"/><line class="cls-1" x1="274.96" y1="4" x2="274.96" y2="9"/><line class="cls-1" x1="281.04" y1="4" x2="281.04" y2="9"/><line class="cls-1" x1="287.12" y1="4" x2="287.12" y2="9"/><line class="cls-1" x1="293.2" y1="4" x2="293.2" y2="9"/><line class="cls-1" x1="299.28" y1="4" x2="299.28" y2="14"/><line class="cls-1" x1="305.36" y1="4" x2="305.36" y2="9"/><line class="cls-1" x1="311.44" y1="4" x2="311.44" y2="9"/><line class="cls-1" x1="317.52" y1="4" x2="317.52" y2="9"/><line class="cls-1" x1="323.6" y1="4" x2="323.6" y2="9"/><line class="cls-1" x1="86.48" y1="4" x2="86.48" y2="14"/><line class="cls-1" x1="147.28" y1="4" x2="147.28" y2="14.45"/><line class="cls-1" x1="208.08" y1="4" x2="208.08" y2="14.45"/><line class="cls-1" x1="268.88" y1="4" x2="268.88" y2="14.45"/><line class="cls-1" x1="329.68" y1="4" x2="329.68" y2="14.45"/><rect class="cls-2" width="356" height="4" transform="translate(356 4) rotate(180)"/></g></g></g></g></svg>