<svg xmlns="http://www.w3.org/2000/svg" viewBox="0 0 31.5 20.5">
    <defs>
        <style>.cls-1{fill:#fff;}.cls-2,.cls-3,.cls-4,.cls-5,.cls-6,.cls-7{fill:none;stroke:#bdbdbd;}.cls-2,.cls-3,.cls-4,.cls-5,.cls-6,.cls-7,.cls-8{stroke-miterlimit:10;stroke-width:0.5px;}.cls-2{stroke-dasharray:0.97 0.97;}.cls-4{stroke-dasharray:0.97 0.97;}.cls-5{stroke-dasharray:1 1;}.cls-6{stroke-dasharray:1.08 1.08;}.cls-7{stroke-dasharray:1.12 1.12;}.cls-8{stroke:#000;}</style>
    </defs>
    <g id="Layer_2" data-name="Layer 2">
        <g id="Portrait">
            <g id="page-01">
                <g id="Layer_26" data-name="Layer 26">
                    <circle class="cls-1" cx="26.25" cy="16.25" r="4"/>
                    <circle class="cls-2" cx="26.25" cy="16.25" r="4"/>
                    <circle class="cls-1" cx="5.25" cy="16.25" r="4"/>
                    <circle class="cls-2" cx="5.25" cy="16.25" r="4"/>
                    <polygon class="cls-1" points="31.25 0.25 0.25 0.25 0.25 16.25 13.15 16.25 15.75 19.75 18.35 16.25 31.25 16.25 31.25 0.25"/>
                    <polyline class="cls-3" points="31.25 0.75 31.25 0.25 30.75 0.25"/>
                    <line class="cls-4" x1="29.78" y1="0.25" x2="1.23" y2="0.25"/>
                    <polyline class="cls-3" points="0.75 0.25 0.25 0.25 0.25 0.75"/>
                    <line class="cls-5" x1="0.25" y1="1.75" x2="0.25" y2="15.25"/>
                    <polyline class="cls-3" points="0.25 15.75 0.25 16.25 0.75 16.25"/>
                    <line class="cls-6" x1="1.83" y1="16.25" x2="12.11" y2="16.25"/>
                    <polyline class="cls-3" points="12.65 16.25 13.15 16.25 13.45 16.65"/>
                    <line class="cls-7" x1="14.12" y1="17.55" x2="15.12" y2="18.9"/>
                    <polyline class="cls-3" points="15.45 19.35 15.75 19.75 16.05 19.35"/>
                    <line class="cls-7" x1="16.72" y1="18.45" x2="17.72" y2="17.1"/>
                    <polyline class="cls-3" points="18.05 16.65 18.35 16.25 18.85 16.25"/>
                    <line class="cls-6" x1="19.93" y1="16.25" x2="30.21" y2="16.25"/>
                    <polyline class="cls-3" points="30.75 16.25 31.25 16.25 31.25 15.75"/>
                    <line class="cls-5" x1="31.25" y1="14.75" x2="31.25" y2="1.25"/>
                    <polygon class="cls-8" points="13.15 16.25 18.35 16.25 15.75 19.75 13.15 16.25"/>
                </g>
            </g>
        </g>
    </g>
</svg>